<?xml version="1.0" encoding="UTF-8" standalone="no"?>
<!DOCTYPE svg PUBLIC "-//W3C//DTD SVG 1.1//EN"
 "http://www.w3.org/Graphics/SVG/1.1/DTD/svg11.dtd">
<!-- Generated by graphviz version 2.40.1 (20161225.0304)
 -->
<!-- Title: %3 Pages: 1 -->
<svg width="834pt" height="404pt"
 viewBox="0.00 0.00 834.26 404.00" xmlns="http://www.w3.org/2000/svg" xmlns:xlink="http://www.w3.org/1999/xlink">
<g id="graph0" class="graph" transform="scale(1 1) rotate(0) translate(4 400)">
<title>%3</title>
<polygon fill="#ffffff" stroke="transparent" points="-4,4 -4,-400 830.2641,-400 830.2641,4 -4,4"/>
<!-- [root] aws_eip.lb (expand) -->
<g id="node1" class="node">
<title>[root] aws_eip.lb (expand)</title>
<polygon fill="none" stroke="#000000" points="425.2843,-180 350.2843,-180 350.2843,-144 425.2843,-144 425.2843,-180"/>
<text text-anchor="middle" x="387.7843" y="-158.3" font-family="Times,serif" font-size="14.00" fill="#000000">aws_eip.lb</text>
</g>
<!-- [root] aws_instance.myec2 (expand) -->
<g id="node2" class="node">
<title>[root] aws_instance.myec2 (expand)</title>
<polygon fill="none" stroke="#000000" points="452.2843,-108 323.2843,-108 323.2843,-72 452.2843,-72 452.2843,-108"/>
<text text-anchor="middle" x="387.7843" y="-86.3" font-family="Times,serif" font-size="14.00" fill="#000000">aws_instance.myec2</text>
</g>
<!-- [root] aws_eip.lb (expand)&#45;&gt;[root] aws_instance.myec2 (expand) -->
<g id="edge1" class="edge">
<title>[root] aws_eip.lb (expand)&#45;&gt;[root] aws_instance.myec2 (expand)</title>
<path fill="none" stroke="#000000" d="M387.7843,-143.8314C387.7843,-136.131 387.7843,-126.9743 387.7843,-118.4166"/>
<polygon fill="#000000" stroke="#000000" points="391.2844,-118.4132 387.7843,-108.4133 384.2844,-118.4133 391.2844,-118.4132"/>
</g>
<!-- [root] provider[&quot;registry.terraform.io/hashicorp/aws&quot;] -->
<g id="node4" class="node">
<title>[root] provider[&quot;registry.terraform.io/hashicorp/aws&quot;]</title>
<polygon fill="none" stroke="#000000" points="387.7843,-36 135.2476,-18 387.7843,0 640.321,-18 387.7843,-36"/>
<text text-anchor="middle" x="387.7843" y="-14.3" font-family="Times,serif" font-size="14.00" fill="#000000">provider[&quot;registry.terraform.io/hashicorp/aws&quot;]</text>
</g>
<!-- [root] aws_instance.myec2 (expand)&#45;&gt;[root] provider[&quot;registry.terraform.io/hashicorp/aws&quot;] -->
<g id="edge2" class="edge">
<title>[root] aws_instance.myec2 (expand)&#45;&gt;[root] provider[&quot;registry.terraform.io/hashicorp/aws&quot;]</title>
<path fill="none" stroke="#000000" d="M387.7843,-71.8314C387.7843,-64.131 387.7843,-54.9743 387.7843,-46.4166"/>
<polygon fill="#000000" stroke="#000000" points="391.2844,-46.4132 387.7843,-36.4133 384.2844,-46.4133 391.2844,-46.4132"/>
</g>
<!-- [root] aws_security_group.allow_tls (expand) -->
<g id="node3" class="node">
<title>[root] aws_security_group.allow_tls (expand)</title>
<polygon fill="none" stroke="#000000" points="477.2843,-252 298.2843,-252 298.2843,-216 477.2843,-216 477.2843,-252"/>
<text text-anchor="middle" x="387.7843" y="-230.3" font-family="Times,serif" font-size="14.00" fill="#000000">aws_security_group.allow_tls</text>
</g>
<!-- [root] aws_security_group.allow_tls (expand)&#45;&gt;[root] aws_eip.lb (expand) -->
<g id="edge3" class="edge">
<title>[root] aws_security_group.allow_tls (expand)&#45;&gt;[root] aws_eip.lb (expand)</title>
<path fill="none" stroke="#000000" d="M387.7843,-215.8314C387.7843,-208.131 387.7843,-198.9743 387.7843,-190.4166"/>
<polygon fill="#000000" stroke="#000000" points="391.2844,-190.4132 387.7843,-180.4133 384.2844,-190.4133 391.2844,-190.4132"/>
</g>
<!-- [root] meta.count&#45;boundary (EachMode fixup) -->
<g id="node5" class="node">
<title>[root] meta.count&#45;boundary (EachMode fixup)</title>
<ellipse fill="none" stroke="#000000" cx="176.7843" cy="-306" rx="176.5689" ry="18"/>
<text text-anchor="middle" x="176.7843" y="-302.3" font-family="Times,serif" font-size="14.00" fill="#000000">[root] meta.count&#45;boundary (EachMode fixup)</text>
</g>
<!-- [root] meta.count&#45;boundary (EachMode fixup)&#45;&gt;[root] aws_security_group.allow_tls (expand) -->
<g id="edge4" class="edge">
<title>[root] meta.count&#45;boundary (EachMode fixup)&#45;&gt;[root] aws_security_group.allow_tls (expand)</title>
<path fill="none" stroke="#000000" d="M227.5926,-288.6626C256.8617,-278.675 293.8936,-266.0385 324.9775,-255.4317"/>
<polygon fill="#000000" stroke="#000000" points="326.5095,-258.6072 334.8433,-252.0652 324.2488,-251.9823 326.5095,-258.6072"/>
</g>
<!-- [root] provider[&quot;registry.terraform.io/hashicorp/aws&quot;] (close) -->
<g id="node6" class="node">
<title>[root] provider[&quot;registry.terraform.io/hashicorp/aws&quot;] (close)</title>
<ellipse fill="none" stroke="#000000" cx="598.7843" cy="-306" rx="227.4596" ry="18"/>
<text text-anchor="middle" x="598.7843" y="-302.3" font-family="Times,serif" font-size="14.00" fill="#000000">[root] provider[&quot;registry.terraform.io/hashicorp/aws&quot;] (close)</text>
</g>
<!-- [root] provider[&quot;registry.terraform.io/hashicorp/aws&quot;] (close)&#45;&gt;[root] aws_security_group.allow_tls (expand) -->
<g id="edge5" class="edge">
<title>[root] provider[&quot;registry.terraform.io/hashicorp/aws&quot;] (close)&#45;&gt;[root] aws_security_group.allow_tls (expand)</title>
<path fill="none" stroke="#000000" d="M547.1679,-288.3868C517.9941,-278.4318 481.3058,-265.9125 450.4854,-255.3956"/>
<polygon fill="#000000" stroke="#000000" points="451.2965,-251.9743 440.702,-252.0572 449.0358,-258.5992 451.2965,-251.9743"/>
</g>
<!-- [root] root -->
<g id="node7" class="node">
<title>[root] root</title>
<ellipse fill="none" stroke="#000000" cx="387.7843" cy="-378" rx="47.3916" ry="18"/>
<text text-anchor="middle" x="387.7843" y="-374.3" font-family="Times,serif" font-size="14.00" fill="#000000">[root] root</text>
</g>
<!-- [root] root&#45;&gt;[root] meta.count&#45;boundary (EachMode fixup) -->
<g id="edge6" class="edge">
<title>[root] root&#45;&gt;[root] meta.count&#45;boundary (EachMode fixup)</title>
<path fill="none" stroke="#000000" d="M352.4677,-365.9488C321.1288,-355.255 274.6686,-339.4013 237.3966,-326.6828"/>
<polygon fill="#000000" stroke="#000000" points="238.2364,-323.2713 227.6419,-323.3543 235.9758,-329.8963 238.2364,-323.2713"/>
</g>
<!-- [root] root&#45;&gt;[root] provider[&quot;registry.terraform.io/hashicorp/aws&quot;] (close) -->
<g id="edge7" class="edge">
<title>[root] root&#45;&gt;[root] provider[&quot;registry.terraform.io/hashicorp/aws&quot;] (close)</title>
<path fill="none" stroke="#000000" d="M423.101,-365.9488C454.2245,-355.3285 500.2621,-339.619 537.4023,-326.9455"/>
<polygon fill="#000000" stroke="#000000" points="538.795,-330.1685 547.1289,-323.6265 536.5344,-323.5436 538.795,-330.1685"/>
</g>
</g>
</svg>
